# Blender 4.0.1
# www.blender.org
v 0.000000 0.000074 -0.073477
v 0.040822 0.587894 -0.061094
v 0.051956 0.000074 -0.051956
v 0.072066 0.587894 -0.014335
v 0.073477 0.000074 0.000000
v 0.061094 0.587894 0.040822
v 0.051956 0.000074 0.051956
v 0.014335 0.587894 0.072066
v 0.000000 0.000074 0.073477
v -0.014335 0.587894 0.072066
v -0.051956 0.000074 0.051956
v -0.061094 0.587894 0.040822
v -0.073477 0.000074 0.000000
v -0.072066 0.587894 -0.014335
v -0.051956 0.000074 -0.051956
v -0.040822 0.587894 -0.061094
vn -0.0000 -0.0050 -1.0000
vn -0.4791 0.0142 -0.8776
vn 0.4791 0.0142 -0.8776
vn 0.9808 0.0067 -0.1951
vn 0.7071 -0.0067 -0.7071
vn 1.0000 -0.0067 0.0001
vn 0.8315 0.0067 0.5555
vn 0.7071 -0.0067 0.7071
vn -0.0000 1.0000 -0.0000
vn 0.2875 0.0041 0.9578
vn -0.0000 -0.0074 1.0000
vn -0.2875 0.0041 0.9578
vn -0.7071 -0.0067 0.7071
vn -0.8315 0.0067 0.5555
vn -1.0000 -0.0067 0.0001
vn -0.9808 0.0067 -0.1951
vn -0.7071 -0.0067 -0.7071
vn -0.0000 -1.0000 -0.0000
vt 0.750000 0.490000
vt 0.116663 0.449553
vt 0.383337 0.449553
vt 0.485388 0.296822
vt 0.875000 0.500000
vt 0.990000 0.250000
vt 0.449553 0.116663
vt 0.750000 0.500000
vt 0.919706 0.080294
vt 0.203178 0.014612
vt 0.296822 0.014612
vt 0.625000 0.500000
vt 0.750000 0.010000
vt 0.500000 0.500000
vt 0.580294 0.080294
vt 0.050447 0.116663
vt 0.375000 0.500000
vt 0.510000 0.250000
vt 0.014612 0.296822
vt 0.250000 0.500000
vt 0.580294 0.419706
vt 0.125000 0.500000
vt 1.000000 0.500000
vt 0.919706 0.419706
s 1
f 1/1/1 16/2/2 2/3/3
f 2/3/3 4/4/4 3/5/5
f 4/4/4 5/6/6 3/5/5
f 4/4/4 6/7/7 5/8/6
f 6/7/7 7/9/8 5/8/6
f 10/10/9 6/7/9 2/3/9
f 6/7/7 8/11/10 7/12/8
f 8/11/10 9/13/11 7/12/8
f 8/11/10 10/10/12 9/14/11
f 9/14/11 10/10/12 11/15/13
f 11/15/13 10/10/12 12/16/14
f 11/17/13 12/16/14 13/18/15
f 13/18/15 12/16/14 14/19/16
f 13/20/15 14/19/16 15/21/17
f 15/21/17 14/19/16 16/2/2
f 7/9/18 11/15/18 15/21/18
f 1/1/1 15/22/17 16/2/2
f 1/23/1 2/3/3 3/24/5
f 2/3/9 16/2/9 14/19/9
f 14/19/9 12/16/9 10/10/9
f 10/10/9 8/11/9 6/7/9
f 6/7/9 4/4/9 2/3/9
f 2/3/9 14/19/9 10/10/9
f 15/21/18 1/1/18 3/24/18
f 3/24/18 5/6/18 7/9/18
f 7/9/18 9/13/18 11/15/18
f 11/15/18 13/18/18 15/21/18
f 15/21/18 3/24/18 7/9/18
v 0.000000 0.589450 -0.205737
v 0.145478 0.589450 -0.145478
v 0.205737 0.589450 0.000000
v 0.145478 0.589450 0.145478
v 0.000000 0.589450 0.205737
v -0.145478 0.589450 0.145478
v -0.205737 0.589450 0.000000
v -0.145478 0.589450 -0.145478
v 0.000000 1.000924 0.000000
vn 0.6325 0.4472 0.6325
vn 0.8944 0.4472 -0.0000
vn -0.0000 1.0000 -0.0000
vn -0.0000 0.4472 0.8944
vn -0.6325 0.4472 0.6325
vn -0.8944 0.4472 -0.0000
vn -0.6325 0.4472 -0.6325
vn -0.0000 0.4472 -0.8944
vn 0.6325 0.4472 -0.6325
vn -0.0000 -1.0000 -0.0000
vt 0.919706 0.080294
vt 0.490000 0.250000
vt 0.250000 0.250000
vt 0.750000 0.010000
vt 0.419706 0.080294
vt 0.580294 0.080294
vt 0.250000 0.010000
vt 0.510000 0.250000
vt 0.080294 0.080294
vt 0.580294 0.419706
vt 0.010000 0.250000
vt 0.750000 0.490000
vt 0.080294 0.419706
vt 0.919706 0.419706
vt 0.250000 0.490000
vt 0.990000 0.250000
vt 0.419706 0.419706
s 1
f 20/25/19 19/26/20 25/27/21
f 21/28/22 20/29/19 25/27/21
f 22/30/23 21/31/22 25/27/21
f 23/32/24 22/33/23 25/27/21
f 24/34/25 23/35/24 25/27/21
f 25/27/21 17/36/26 24/37/25
f 18/38/27 17/39/26 25/27/21
f 20/25/28 22/30/28 24/34/28
f 19/40/20 18/41/27 25/27/21
f 24/34/28 17/36/28 18/38/28
f 18/38/28 19/40/28 20/25/28
f 20/25/28 21/28/28 22/30/28
f 22/30/28 23/32/28 24/34/28
f 24/34/28 18/38/28 20/25/28
